<svg xmlns="http://www.w3.org/2000/svg" id="레이어_1" x="0" y="0" version="1.1" viewBox="0 0 100.7 113.9" xml:space="preserve"><style>.st0{fill:#e6a329}.st1{fill:#f1bf22}.st2{fill:#fff}.st3{fill:#ebebeb}</style><g id="Layer_1"><path d="M100.7 0H0l9.5 102.3 40.9 11.6 40.9-11.6z" class="st0"/><path d="M50.4 8.3v97l33.1-9.4 8.1-87.6z" class="st1"/><path d="M76.7 20.9H25.8l-3.6 38.3.1-.2h43.3l-1.4 16.2-13.8 4-14.1-4.1-.8-9.8H22.8l1.8 19.6 25.8 7.3 25.7-7.3 3.6-38.5H33.8l.5-12.8h31.9l.5 7.3h12.8z" class="st2"/><path d="M50.4 20.9H25.8l-3.6 38.3.1-.2h28.1V46.4H35.5l.6-12.8h14.3V20.9zM35.5 65.3H22.8l1.8 19.6 25.8 7.3v-13l-14-4-.9-9.9z" class="st3"/></g></svg>